<?xml version="1.0" encoding="UTF-8" standalone="no"?>
<!DOCTYPE svg PUBLIC "-//W3C//DTD SVG 1.1//EN"
 "http://www.w3.org/Graphics/SVG/1.1/DTD/svg11.dtd">
<!-- Generated by graphviz version 2.38.0 (20140413.2041)
 -->
<!-- Title: G Pages: 1 -->
<svg width="1463pt" height="124pt"
 viewBox="0.00 0.00 1462.55 123.98" xmlns="http://www.w3.org/2000/svg" xmlns:xlink="http://www.w3.org/1999/xlink">
<g id="graph0" class="graph" transform="scale(1 1) rotate(0) translate(7.992 115.992)">
<title>G</title>
<polygon fill="#000000" stroke="none" points="-7.992,7.992 -7.992,-115.992 1454.56,-115.992 1454.56,7.992 -7.992,7.992"/>
<!-- index.js -->
<g id="node1" class="node"><title>index.js</title>
<ellipse fill="none" stroke="#c6c5fe" cx="690.035" cy="-90" rx="42.4939" ry="18"/>
<text text-anchor="middle" x="690.035" y="-86.3" font-family="Arial" font-size="14.00" fill="#c6c5fe">index.js</text>
</g>
<!-- ../node_modules/fun&#45;curry/src/index.js -->
<g id="node2" class="node"><title>../node_modules/fun&#45;curry/src/index.js</title>
<ellipse fill="none" stroke="#cfffac" cx="167.035" cy="-18" rx="167.07" ry="18"/>
<text text-anchor="middle" x="167.035" y="-14.3" font-family="Arial" font-size="14.00" fill="#cfffac">../node_modules/fun&#45;curry/src/index.js</text>
</g>
<!-- index.js&#45;&gt;../node_modules/fun&#45;curry/src/index.js -->
<g id="edge1" class="edge"><title>index.js&#45;&gt;../node_modules/fun&#45;curry/src/index.js</title>
<path fill="none" stroke="#757575" d="M650.296,-83.6812C571.716,-73.1638 393.999,-49.3776 277.374,-33.7681"/>
<polygon fill="#757575" stroke="#757575" points="277.712,-30.2822 267.336,-32.4246 276.783,-37.2203 277.712,-30.2822"/>
</g>
<!-- ../node_modules/fun&#45;type/src/index.js -->
<g id="node3" class="node"><title>../node_modules/fun&#45;type/src/index.js</title>
<ellipse fill="none" stroke="#cfffac" cx="516.035" cy="-18" rx="164.371" ry="18"/>
<text text-anchor="middle" x="516.035" y="-14.3" font-family="Arial" font-size="14.00" fill="#cfffac">../node_modules/fun&#45;type/src/index.js</text>
</g>
<!-- index.js&#45;&gt;../node_modules/fun&#45;type/src/index.js -->
<g id="edge2" class="edge"><title>index.js&#45;&gt;../node_modules/fun&#45;type/src/index.js</title>
<path fill="none" stroke="#757575" d="M660.124,-76.9666C634.434,-66.6317 596.855,-51.5136 566.515,-39.3079"/>
<polygon fill="#757575" stroke="#757575" points="567.527,-35.9424 556.943,-35.4572 564.914,-42.4366 567.527,-35.9424"/>
</g>
<!-- ../node_modules/guarded/src/index.js -->
<g id="node4" class="node"><title>../node_modules/guarded/src/index.js</title>
<ellipse fill="none" stroke="#cfffac" cx="864.035" cy="-18" rx="165.171" ry="18"/>
<text text-anchor="middle" x="864.035" y="-14.3" font-family="Arial" font-size="14.00" fill="#cfffac">../node_modules/guarded/src/index.js</text>
</g>
<!-- index.js&#45;&gt;../node_modules/guarded/src/index.js -->
<g id="edge3" class="edge"><title>index.js&#45;&gt;../node_modules/guarded/src/index.js</title>
<path fill="none" stroke="#757575" d="M719.947,-76.9666C745.636,-66.6317 783.216,-51.5136 813.555,-39.3079"/>
<polygon fill="#757575" stroke="#757575" points="815.156,-42.4366 823.127,-35.4572 812.544,-35.9424 815.156,-42.4366"/>
</g>
<!-- ../node_modules/stringify&#45;anything/src/index.js -->
<g id="node5" class="node"><title>../node_modules/stringify&#45;anything/src/index.js</title>
<ellipse fill="none" stroke="#cfffac" cx="1247.04" cy="-18" rx="199.565" ry="18"/>
<text text-anchor="middle" x="1247.04" y="-14.3" font-family="Arial" font-size="14.00" fill="#cfffac">../node_modules/stringify&#45;anything/src/index.js</text>
</g>
<!-- index.js&#45;&gt;../node_modules/stringify&#45;anything/src/index.js -->
<g id="edge4" class="edge"><title>index.js&#45;&gt;../node_modules/stringify&#45;anything/src/index.js</title>
<path fill="none" stroke="#757575" d="M730.093,-83.9658C811.757,-73.7028 1000.34,-50.0026 1125.72,-34.2455"/>
<polygon fill="#757575" stroke="#757575" points="1126.28,-37.7029 1135.77,-32.9832 1125.41,-30.7575 1126.28,-37.7029"/>
</g>
</g>
</svg>
