<?xml version="1.0" encoding="UTF-8" standalone="no"?>
<!DOCTYPE svg PUBLIC "-//W3C//DTD SVG 1.1//EN"
 "http://www.w3.org/Graphics/SVG/1.1/DTD/svg11.dtd">
<!-- Generated by graphviz version 2.38.0 (20140413.2041)
 -->
<!-- Title: G Pages: 1 -->
<svg width="1781pt" height="124pt"
 viewBox="0.00 0.00 1780.60 123.98" xmlns="http://www.w3.org/2000/svg" xmlns:xlink="http://www.w3.org/1999/xlink">
<g id="graph0" class="graph" transform="scale(1 1) rotate(0) translate(7.992 115.992)">
<title>G</title>
<polygon fill="#000000" stroke="none" points="-7.992,7.992 -7.992,-115.992 1772.61,-115.992 1772.61,7.992 -7.992,7.992"/>
<!-- index -->
<g id="node1" class="node"><title>index</title>
<ellipse fill="none" stroke="#c6c5fe" cx="861.186" cy="-90" rx="32.4942" ry="18"/>
<text text-anchor="middle" x="861.186" y="-86.3" font-family="Arial" font-size="14.00" fill="#c6c5fe">index</text>
</g>
<!-- ../node_modules/fun&#45;async/src/index -->
<g id="node2" class="node"><title>../node_modules/fun&#45;async/src/index</title>
<ellipse fill="none" stroke="#cfffac" cx="161.186" cy="-18" rx="161.372" ry="18"/>
<text text-anchor="middle" x="161.186" y="-14.3" font-family="Arial" font-size="14.00" fill="#cfffac">../node_modules/fun&#45;async/src/index</text>
</g>
<!-- index&#45;&gt;../node_modules/fun&#45;async/src/index -->
<g id="edge1" class="edge"><title>index&#45;&gt;../node_modules/fun&#45;async/src/index</title>
<path fill="none" stroke="#757575" d="M829.289,-85.8103C734.847,-76.3661 452.898,-48.1713 286.996,-31.581"/>
<polygon fill="#757575" stroke="#757575" points="287.029,-28.067 276.73,-30.5545 286.333,-35.0322 287.029,-28.067"/>
</g>
<!-- ../node_modules/fun&#45;function/src/index -->
<g id="node3" class="node"><title>../node_modules/fun&#45;function/src/index</title>
<ellipse fill="none" stroke="#cfffac" cx="510.186" cy="-18" rx="169.77" ry="18"/>
<text text-anchor="middle" x="510.186" y="-14.3" font-family="Arial" font-size="14.00" fill="#cfffac">../node_modules/fun&#45;function/src/index</text>
</g>
<!-- index&#45;&gt;../node_modules/fun&#45;function/src/index -->
<g id="edge2" class="edge"><title>index&#45;&gt;../node_modules/fun&#45;function/src/index</title>
<path fill="none" stroke="#757575" d="M830.956,-82.9713C779.314,-72.6723 672.305,-51.3314 596.095,-36.1328"/>
<polygon fill="#757575" stroke="#757575" points="596.515,-32.6478 586.024,-34.1244 595.146,-39.5127 596.515,-32.6478"/>
</g>
<!-- ../node_modules/fun&#45;object/src/index -->
<g id="node4" class="node"><title>../node_modules/fun&#45;object/src/index</title>
<ellipse fill="none" stroke="#cfffac" cx="861.186" cy="-18" rx="163.271" ry="18"/>
<text text-anchor="middle" x="861.186" y="-14.3" font-family="Arial" font-size="14.00" fill="#cfffac">../node_modules/fun&#45;object/src/index</text>
</g>
<!-- index&#45;&gt;../node_modules/fun&#45;object/src/index -->
<g id="edge3" class="edge"><title>index&#45;&gt;../node_modules/fun&#45;object/src/index</title>
<path fill="none" stroke="#757575" d="M861.186,-71.6966C861.186,-63.9827 861.186,-54.7125 861.186,-46.1124"/>
<polygon fill="#757575" stroke="#757575" points="864.686,-46.1043 861.186,-36.1043 857.686,-46.1044 864.686,-46.1043"/>
</g>
<!-- ../node_modules/fun&#45;scalar/src/index -->
<g id="node5" class="node"><title>../node_modules/fun&#45;scalar/src/index</title>
<ellipse fill="none" stroke="#cfffac" cx="1204.19" cy="-18" rx="161.671" ry="18"/>
<text text-anchor="middle" x="1204.19" y="-14.3" font-family="Arial" font-size="14.00" fill="#cfffac">../node_modules/fun&#45;scalar/src/index</text>
</g>
<!-- index&#45;&gt;../node_modules/fun&#45;scalar/src/index -->
<g id="edge4" class="edge"><title>index&#45;&gt;../node_modules/fun&#45;scalar/src/index</title>
<path fill="none" stroke="#757575" d="M891.324,-82.8493C942.092,-72.4886 1046.38,-51.2058 1120.58,-36.0624"/>
<polygon fill="#757575" stroke="#757575" points="1121.29,-39.4903 1130.39,-34.0613 1119.89,-32.6317 1121.29,-39.4903"/>
</g>
<!-- ../node_modules/stringify&#45;anything/src/index -->
<g id="node6" class="node"><title>../node_modules/stringify&#45;anything/src/index</title>
<ellipse fill="none" stroke="#cfffac" cx="1574.19" cy="-18" rx="190.366" ry="18"/>
<text text-anchor="middle" x="1574.19" y="-14.3" font-family="Arial" font-size="14.00" fill="#cfffac">../node_modules/stringify&#45;anything/src/index</text>
</g>
<!-- index&#45;&gt;../node_modules/stringify&#45;anything/src/index -->
<g id="edge5" class="edge"><title>index&#45;&gt;../node_modules/stringify&#45;anything/src/index</title>
<path fill="none" stroke="#757575" d="M893.207,-85.8563C987.324,-76.6162 1267.13,-49.1454 1437.38,-32.4309"/>
<polygon fill="#757575" stroke="#757575" points="1437.81,-35.9055 1447.42,-31.4451 1437.13,-28.939 1437.81,-35.9055"/>
</g>
</g>
</svg>
